<?xml version="1.0" encoding="utf-8"?>
<!-- Generated by IcoMoon.io -->
<!DOCTYPE svg PUBLIC "-//W3C//DTD SVG 1.1//EN" "http://www.w3.org/Graphics/SVG/1.1/DTD/svg11.dtd">
<svg version="1.1" xmlns="http://www.w3.org/2000/svg" xmlns:xlink="http://www.w3.org/1999/xlink" width="512" height="512" viewBox="0 0 512 512">
<g id="icomoon-ignore">
</g>
<path d="M225.8 383.1l-18.8-51c0 0-30.5 34-76.2 34-40.5 0-69.2-35.2-69.2-91.5 0-72.1 36.4-97.9 72.1-97.9 51.6 0 68 33.4 82.1 76.2l18.8 58.6c18.8 56.9 54 102.6 155.4 102.6 72.7 0 122-22.3 122-80.9 0-47.5-27-72.1-77.4-83.9l-37.5-8.2c-25.8-5.9-33.4-16.4-33.4-34 0-19.9 15.8-31.7 41.6-31.7 28.2 0 43.4 10.6 45.7 35.8l58.6-7c-4.7-52.8-41.1-74.5-100.9-74.5-52.8 0-104.4 19.9-104.4 83.9 0 39.9 19.4 65.1 68 76.8l39.9 9.4c29.9 7 39.9 19.4 39.9 36.4 0 21.7-21.1 30.5-61 30.5-59.2 0-83.9-31.1-97.9-73.9l-19.4-58.6c-24.5-76.3-63.8-104.4-141.8-104.4-86.2 0-132 54.5-132 147.2 0 89.1 45.7 137.2 127.9 137.2 66.2 0 97.9-31.1 97.9-31.1v0z"></path>
</svg>
