<?xml version="1.0" encoding="utf-8"?>
<!-- Generator: Adobe Illustrator 16.0.0, SVG Export Plug-In . SVG Version: 6.00 Build 0)  -->
<!DOCTYPE svg PUBLIC "-//W3C//DTD SVG 1.1//EN" "http://www.w3.org/Graphics/SVG/1.1/DTD/svg11.dtd">
<svg version="1.1" id="Layer_1" xmlns="http://www.w3.org/2000/svg" xmlns:xlink="http://www.w3.org/1999/xlink" x="0px" y="0px"
	 width="96px" height="96px" viewBox="0 0 96 96" enable-background="new 0 0 96 96" xml:space="preserve">

<path d="M78.857,18.7c-0.008-0.009-0.013-0.016-0.024-0.023c-11.708-7.989-27.769-7.859-32.85-7.373
	c-0.001-0.009-0.005-0.018-0.006-0.027c-5.939,0.693-10.411,2.07-10.411,2.07S19.553,6.343,15.119,8.102
	c-4.427,1.758-0.549,9.096,2.804,12.514C11.021,26.868,6.611,34.981,5.978,43.917c-1.529,4.057-4.318,3.36-4.322,3.36v14.562
	c0,0,6.796-0.378,11.628,4.93c2.779,3.607,9.509,8.607,9.509,8.607l-1.807,7.428l11.597,1.104l1.013-2.837l1.813,0.629l2.765,5.766
	l7.512,0.001l1.738-3.268c12.265,0.427,19.556-2.227,19.556-2.227l0.363,5.18l10.93-0.843l2.366-10.926
	c-0.014,0.007,13.312-7.475,13.707-27.864C94.572,35.805,88.551,25.402,78.857,18.7z M20.62,36.739c-2.03,0-3.677-1.649-3.677-3.682
	c0-2.036,1.646-3.684,3.677-3.684c2.037,0,3.681,1.65,3.681,3.684C24.301,35.09,22.657,36.739,20.62,36.739z M75.809,30.06
	c-0.494,0.565-1.187,0.854-1.883,0.854c-0.584,0-1.171-0.204-1.645-0.618c-8.386-7.334-20.948-6.279-21.073-6.266
	c-1.371,0.121-2.592-0.887-2.717-2.262c-0.126-1.375,0.887-2.591,2.262-2.717c0.603-0.052,14.841-1.246,24.819,7.482
	C76.612,27.441,76.718,29.02,75.809,30.06z"/>
</svg>
